<svg xmlns="http://www.w3.org/2000/svg" viewBox="0 0 348 348" fill="none"><path d="M4 5v339h339V5H4zm2 2h335v335H6V7z" style="color:#000;font-style:normal;font-variant:normal;font-weight:400;font-stretch:normal;font-size:medium;line-height:normal;font-family:sans-serif;font-variant-ligatures:normal;font-variant-position:normal;font-variant-caps:normal;font-variant-numeric:normal;font-variant-alternates:normal;font-variant-east-asian:normal;font-feature-settings:normal;font-variation-settings:normal;text-indent:0;text-align:start;text-decoration:none;text-decoration-line:none;text-decoration-style:solid;text-decoration-color:#000;letter-spacing:normal;word-spacing:normal;text-transform:none;writing-mode:lr-tb;direction:ltr;text-orientation:mixed;dominant-baseline:auto;baseline-shift:baseline;text-anchor:start;white-space:normal;shape-padding:0;shape-margin:0;inline-size:0;clip-rule:nonzero;display:inline;overflow:visible;visibility:visible;isolation:auto;mix-blend-mode:normal;color-interpolation:sRGB;color-interpolation-filters:linearRGB;solid-color:#000;solid-opacity:1;vector-effect:none;fill:#000;fill-opacity:1;fill-rule:nonzero;stroke:none;stroke-width:2;stroke-linecap:butt;stroke-linejoin:miter;stroke-miterlimit:4;stroke-dasharray:none;stroke-dashoffset:0;stroke-opacity:1;color-rendering:auto;image-rendering:auto;shape-rendering:auto;text-rendering:auto;enable-background:accumulate;stop-color:#000;stop-opacity:1;opacity:1"/><g style="opacity:1"><path d="M173.5 307 58.75 240.76v-132.5L173.5 41.99l114.75 66.26v132.5z" style="color:#000;font-style:normal;font-variant:normal;font-weight:400;font-stretch:normal;font-size:medium;line-height:normal;font-family:sans-serif;font-variant-ligatures:normal;font-variant-position:normal;font-variant-caps:normal;font-variant-numeric:normal;font-variant-alternates:normal;font-variant-east-asian:normal;font-feature-settings:normal;font-variation-settings:normal;text-indent:0;text-align:start;text-decoration:none;text-decoration-line:none;text-decoration-style:solid;text-decoration-color:#000;letter-spacing:normal;word-spacing:normal;text-transform:none;writing-mode:lr-tb;direction:ltr;text-orientation:mixed;dominant-baseline:auto;baseline-shift:baseline;text-anchor:start;white-space:normal;shape-padding:0;shape-margin:0;inline-size:0;clip-rule:nonzero;display:inline;overflow:visible;visibility:visible;isolation:auto;mix-blend-mode:normal;color-interpolation:sRGB;color-interpolation-filters:linearRGB;solid-color:#000;solid-opacity:1;vector-effect:none;fill:#6e6e6e;fill-opacity:1;fill-rule:nonzero;stroke:none;stroke-width:2.93139;stroke-linecap:round;stroke-linejoin:round;stroke-miterlimit:4;stroke-dasharray:none;stroke-dashoffset:0;stroke-opacity:1;color-rendering:auto;image-rendering:auto;shape-rendering:auto;text-rendering:auto;enable-background:accumulate;stop-color:#000;stop-opacity:1"/><path d="M173.45 40.53a1.47 1.47 0 0 0-.68.2L58 106.97a1.47 1.47 0 0 0-.73 1.27v132.5a1.47 1.47 0 0 0 .73 1.27l114.76 66.26a1.47 1.47 0 0 0 1.46 0L289 242.02a1.47 1.47 0 0 0 .73-1.27v-132.5a1.47 1.47 0 0 0-.73-1.27L174.23 40.72a1.47 1.47 0 0 0-.78-.2zm.05 3.16 113.29 65.4v130.82L173.5 305.3l-113.29-65.4V109.09L173.5 43.7z" style="color:#000;font-style:normal;font-variant:normal;font-weight:400;font-stretch:normal;font-size:medium;line-height:normal;font-family:sans-serif;font-variant-ligatures:normal;font-variant-position:normal;font-variant-caps:normal;font-variant-numeric:normal;font-variant-alternates:normal;font-variant-east-asian:normal;font-feature-settings:normal;font-variation-settings:normal;text-indent:0;text-align:start;text-decoration:none;text-decoration-line:none;text-decoration-style:solid;text-decoration-color:#000;letter-spacing:normal;word-spacing:normal;text-transform:none;writing-mode:lr-tb;direction:ltr;text-orientation:mixed;dominant-baseline:auto;baseline-shift:baseline;text-anchor:start;white-space:normal;shape-padding:0;shape-margin:0;inline-size:0;clip-rule:nonzero;display:inline;overflow:visible;visibility:visible;isolation:auto;mix-blend-mode:normal;color-interpolation:sRGB;color-interpolation-filters:linearRGB;solid-color:#000;solid-opacity:1;vector-effect:none;fill:#000;fill-opacity:1;fill-rule:nonzero;stroke:none;stroke-width:2.93139;stroke-linecap:round;stroke-linejoin:round;stroke-miterlimit:4;stroke-dasharray:none;stroke-dashoffset:0;stroke-opacity:1;color-rendering:auto;image-rendering:auto;shape-rendering:auto;text-rendering:auto;enable-background:accumulate;stop-color:#000;stop-opacity:1"/></g><g style="opacity:1"><path d="m173.5 131.03-35.72-20.63V69.15l35.72-20.62 35.72 20.62v41.25z" style="color:#000;font-style:normal;font-variant:normal;font-weight:400;font-stretch:normal;font-size:medium;line-height:normal;font-family:sans-serif;font-variant-ligatures:normal;font-variant-position:normal;font-variant-caps:normal;font-variant-numeric:normal;font-variant-alternates:normal;font-variant-east-asian:normal;font-feature-settings:normal;font-variation-settings:normal;text-indent:0;text-align:start;text-decoration:none;text-decoration-line:none;text-decoration-style:solid;text-decoration-color:#000;letter-spacing:normal;word-spacing:normal;text-transform:none;writing-mode:lr-tb;direction:ltr;text-orientation:mixed;dominant-baseline:auto;baseline-shift:baseline;text-anchor:start;white-space:normal;shape-padding:0;shape-margin:0;inline-size:0;clip-rule:nonzero;display:inline;overflow:visible;visibility:visible;isolation:auto;mix-blend-mode:normal;color-interpolation:sRGB;color-interpolation-filters:linearRGB;solid-color:#000;solid-opacity:1;vector-effect:none;fill:#969696;fill-opacity:1;fill-rule:nonzero;stroke:none;stroke-width:.912557;stroke-linecap:round;stroke-linejoin:round;stroke-miterlimit:4;stroke-dasharray:none;stroke-dashoffset:0;stroke-opacity:1;color-rendering:auto;image-rendering:auto;shape-rendering:auto;text-rendering:auto;enable-background:accumulate;stop-color:#000;stop-opacity:1"/><path d="M173.51 48.07a.46.46 0 0 0-.24.06l-35.72 20.63a.46.46 0 0 0-.23.4v41.24a.46.46 0 0 0 .23.4l35.72 20.62a.46.46 0 0 0 .46 0l35.72-20.62a.46.46 0 0 0 .23-.4V69.15a.46.46 0 0 0-.23-.39l-35.72-20.63a.46.46 0 0 0-.22-.06zm-.01.99 35.27 20.36v40.72L173.5 130.5l-35.27-20.36V69.42l35.27-20.36z" style="color:#000;font-style:normal;font-variant:normal;font-weight:400;font-stretch:normal;font-size:medium;line-height:normal;font-family:sans-serif;font-variant-ligatures:normal;font-variant-position:normal;font-variant-caps:normal;font-variant-numeric:normal;font-variant-alternates:normal;font-variant-east-asian:normal;font-feature-settings:normal;font-variation-settings:normal;text-indent:0;text-align:start;text-decoration:none;text-decoration-line:none;text-decoration-style:solid;text-decoration-color:#000;letter-spacing:normal;word-spacing:normal;text-transform:none;writing-mode:lr-tb;direction:ltr;text-orientation:mixed;dominant-baseline:auto;baseline-shift:baseline;text-anchor:start;white-space:normal;shape-padding:0;shape-margin:0;inline-size:0;clip-rule:nonzero;display:inline;overflow:visible;visibility:visible;isolation:auto;mix-blend-mode:normal;color-interpolation:sRGB;color-interpolation-filters:linearRGB;solid-color:#000;solid-opacity:1;vector-effect:none;fill:#000;fill-opacity:1;fill-rule:nonzero;stroke:none;stroke-width:.912557;stroke-linecap:round;stroke-linejoin:round;stroke-miterlimit:4;stroke-dasharray:none;stroke-dashoffset:0;stroke-opacity:1;color-rendering:auto;image-rendering:auto;shape-rendering:auto;text-rendering:auto;enable-background:accumulate;stop-color:#000;stop-opacity:1"/></g><g style="opacity:1"><path d="m173.5 300.47-35.72-20.62V238.6l35.72-20.63 35.72 20.63v41.25z" style="color:#000;font-style:normal;font-variant:normal;font-weight:400;font-stretch:normal;font-size:medium;line-height:normal;font-family:sans-serif;font-variant-ligatures:normal;font-variant-position:normal;font-variant-caps:normal;font-variant-numeric:normal;font-variant-alternates:normal;font-variant-east-asian:normal;font-feature-settings:normal;font-variation-settings:normal;text-indent:0;text-align:start;text-decoration:none;text-decoration-line:none;text-decoration-style:solid;text-decoration-color:#000;letter-spacing:normal;word-spacing:normal;text-transform:none;writing-mode:lr-tb;direction:ltr;text-orientation:mixed;dominant-baseline:auto;baseline-shift:baseline;text-anchor:start;white-space:normal;shape-padding:0;shape-margin:0;inline-size:0;clip-rule:nonzero;display:inline;overflow:visible;visibility:visible;isolation:auto;mix-blend-mode:normal;color-interpolation:sRGB;color-interpolation-filters:linearRGB;solid-color:#000;solid-opacity:1;vector-effect:none;fill:#bebebe;fill-opacity:1;fill-rule:nonzero;stroke:none;stroke-width:.912557;stroke-linecap:round;stroke-linejoin:round;stroke-miterlimit:4;stroke-dasharray:none;stroke-dashoffset:0;stroke-opacity:1;color-rendering:auto;image-rendering:auto;shape-rendering:auto;text-rendering:auto;enable-background:accumulate;stop-color:#000;stop-opacity:1"/><path d="M173.51 217.52a.46.46 0 0 0-.24.06l-35.72 20.62a.46.46 0 0 0-.23.4v41.25a.46.46 0 0 0 .23.39l35.72 20.63a.46.46 0 0 0 .46 0l35.72-20.63a.46.46 0 0 0 .23-.4V238.6a.46.46 0 0 0-.23-.4l-35.72-20.62a.46.46 0 0 0-.22-.06zm-.01.98 35.27 20.36v40.72l-35.27 20.36-35.27-20.36v-40.72l35.27-20.36z" style="color:#000;font-style:normal;font-variant:normal;font-weight:400;font-stretch:normal;font-size:medium;line-height:normal;font-family:sans-serif;font-variant-ligatures:normal;font-variant-position:normal;font-variant-caps:normal;font-variant-numeric:normal;font-variant-alternates:normal;font-variant-east-asian:normal;font-feature-settings:normal;font-variation-settings:normal;text-indent:0;text-align:start;text-decoration:none;text-decoration-line:none;text-decoration-style:solid;text-decoration-color:#000;letter-spacing:normal;word-spacing:normal;text-transform:none;writing-mode:lr-tb;direction:ltr;text-orientation:mixed;dominant-baseline:auto;baseline-shift:baseline;text-anchor:start;white-space:normal;shape-padding:0;shape-margin:0;inline-size:0;clip-rule:nonzero;display:inline;overflow:visible;visibility:visible;isolation:auto;mix-blend-mode:normal;color-interpolation:sRGB;color-interpolation-filters:linearRGB;solid-color:#000;solid-opacity:1;vector-effect:none;fill:#000;fill-opacity:1;fill-rule:nonzero;stroke:none;stroke-width:.912557;stroke-linecap:round;stroke-linejoin:round;stroke-miterlimit:4;stroke-dasharray:none;stroke-dashoffset:0;stroke-opacity:1;color-rendering:auto;image-rendering:auto;shape-rendering:auto;text-rendering:auto;enable-background:accumulate;stop-color:#000;stop-opacity:1"/></g><g style="font-size:53.3333px;line-height:1.25;font-family:Gugi;-inkscape-font-specification:Gugi;fill:#000;fill-opacity:1" aria-label="V"><g style="opacity:1"><path d="M173.55-68.31c-.71 0-1.48-.1-2.3-.32a2.84 2.84 0 0 1-1.7-1.34 970.62 970.62 0 0 0-5.23-17.12c-1-3.3-2.06-6.73-3.2-10.29a948.7 948.7 0 0 1-3.2-10.3 2.14 2.14 0 0 1 .37-2.02 3.99 3.99 0 0 1 1.98-1.33c.53-.14 1-.22 1.38-.22 1.21 0 2 .6 2.35 1.82l3.95 12.64c.35 1.28.76 2.68 1.22 4.21.5 1.53 1 3.1 1.5 4.7l1.49 4.8 1.39 4.37 2.18-7.26c.82-2.63 1.64-5.3 2.46-8a1848.86 1848.86 0 0 0 4.8-15.46c.39-1.21 1.15-1.82 2.29-1.82.43 0 .92.08 1.5.22 1.95.53 2.71 1.65 2.29 3.36a51817.47 51817.47 0 0 1-11.63 37.7 2.26 2.26 0 0 1-1.6 1.4c-.75.17-1.51.26-2.3.26z" style="color:#000;font-style:normal;font-variant:normal;font-weight:400;font-stretch:normal;font-size:medium;line-height:1.25;font-family:Gugi;-inkscape-font-specification:Gugi;font-variant-ligatures:normal;font-variant-position:normal;font-variant-caps:normal;font-variant-numeric:normal;font-variant-alternates:normal;font-variant-east-asian:normal;font-feature-settings:normal;font-variation-settings:normal;text-indent:0;text-align:start;text-decoration:none;text-decoration-line:none;text-decoration-style:solid;text-decoration-color:#000;letter-spacing:normal;word-spacing:normal;text-transform:none;writing-mode:lr-tb;direction:ltr;text-orientation:mixed;dominant-baseline:auto;baseline-shift:baseline;text-anchor:start;white-space:normal;shape-padding:0;shape-margin:0;inline-size:0;clip-rule:nonzero;display:inline;overflow:visible;visibility:visible;isolation:auto;mix-blend-mode:normal;color-interpolation:sRGB;color-interpolation-filters:linearRGB;solid-color:#000;solid-opacity:1;vector-effect:none;fill:#000;fill-opacity:1;fill-rule:nonzero;stroke-width:1;stroke-linecap:butt;stroke-linejoin:miter;stroke-miterlimit:4;stroke-dasharray:none;stroke-dashoffset:0;stroke-opacity:1;color-rendering:auto;image-rendering:auto;shape-rendering:auto;text-rendering:auto;enable-background:accumulate;stop-color:#000;stop-opacity:1;stroke:none" transform="scale(1 -1)"/><path d="M161.65-111.75c-.45 0-.95.08-1.51.23h-.02l-.01.01a4.5 4.5 0 0 0-2.21 1.5 2.7 2.7 0 0 0-.46 2.47v.01c1 3.28 2.06 6.7 3.2 10.3 1.14 3.56 2.2 6.98 3.2 10.29a851.53 851.53 0 0 1 5.23 17.12l.01.05.03.05a3.38 3.38 0 0 0 2 1.56l.02.01a9.6 9.6 0 0 0 4.83.06h.01c.9-.25 1.6-.85 1.93-1.69l.01-.02v-.02a9959.92 9959.92 0 0 1 11.63-37.7v-.02l.01-.01c.24-.95.15-1.83-.32-2.52a3.94 3.94 0 0 0-2.33-1.45 6.73 6.73 0 0 0-1.62-.23c-.66 0-1.26.19-1.74.56-.47.38-.81.93-1.03 1.6v.01l-2.3 7.47c-.81 2.63-1.65 5.3-2.5 8l-2.45 8-1.72 5.7-.9-2.82-1.5-4.8c-.5-1.6-.99-3.17-1.49-4.7-.46-1.53-.87-2.92-1.22-4.2l-3.95-12.65a3.08 3.08 0 0 0-1.03-1.6 2.9 2.9 0 0 0-1.8-.57zm0 1c.52 0 .9.13 1.2.35.28.23.51.58.67 1.1v.01l3.95 12.65c.35 1.28.76 2.68 1.23 4.2v.01c.5 1.53 1 3.1 1.49 4.7l1.5 4.8 1.38 4.37.49 1.54.47-1.55 2.18-7.25c.82-2.63 1.64-5.3 2.45-8 .86-2.7 1.7-5.37 2.51-8l2.3-7.46c.17-.54.4-.9.7-1.12a1.7 1.7 0 0 1 1.1-.35c.38 0 .84.07 1.38.2.9.25 1.46.62 1.75 1.04.3.43.37.96.18 1.71a51632.04 51632.04 0 0 1-11.6 37.65c-.24.58-.61.9-1.27 1.09a8.64 8.64 0 0 1-4.31-.05 2.3 2.3 0 0 1-1.4-1.09 970.98 970.98 0 0 0-5.2-17.03c-1-3.31-2.07-6.75-3.2-10.3-1.14-3.59-2.2-7-3.2-10.27-.18-.67-.09-1.13.28-1.58v-.01c.4-.52.96-.9 1.73-1.16.5-.13.92-.2 1.24-.2z" style="color:#000;font-style:normal;font-variant:normal;font-weight:400;font-stretch:normal;font-size:medium;line-height:1.25;font-family:Gugi;-inkscape-font-specification:Gugi;font-variant-ligatures:normal;font-variant-position:normal;font-variant-caps:normal;font-variant-numeric:normal;font-variant-alternates:normal;font-variant-east-asian:normal;font-feature-settings:normal;font-variation-settings:normal;text-indent:0;text-align:start;text-decoration:none;text-decoration-line:none;text-decoration-style:solid;text-decoration-color:#000;letter-spacing:normal;word-spacing:normal;text-transform:none;writing-mode:lr-tb;direction:ltr;text-orientation:mixed;dominant-baseline:auto;baseline-shift:baseline;text-anchor:start;white-space:normal;shape-padding:0;shape-margin:0;inline-size:0;clip-rule:nonzero;display:inline;overflow:visible;visibility:visible;isolation:auto;mix-blend-mode:normal;color-interpolation:sRGB;color-interpolation-filters:linearRGB;solid-color:#000;solid-opacity:1;vector-effect:none;fill-opacity:1;fill-rule:nonzero;stroke-width:1;stroke-linecap:butt;stroke-linejoin:miter;stroke-miterlimit:4;stroke-dasharray:none;stroke-dashoffset:0;stroke-opacity:1;color-rendering:auto;image-rendering:auto;shape-rendering:auto;text-rendering:auto;enable-background:accumulate;stop-color:#000;stop-opacity:1;stroke:none" transform="scale(1 -1)"/></g></g><g style="font-size:53.333px;line-height:1.25;font-family:Gugi;-inkscape-font-specification:Gugi;fill:#000;fill-opacity:1;stroke-width:.999995" aria-label="V"><g style="opacity:1"><path d="M173.55 280.69c-.71 0-1.48-.1-2.3-.32a2.84 2.84 0 0 1-1.7-1.34 970.7 970.7 0 0 0-5.23-17.12c-1-3.3-2.06-6.73-3.2-10.29-1.14-3.59-2.2-7.02-3.2-10.3a2.14 2.14 0 0 1 .37-2.02 3.99 3.99 0 0 1 1.98-1.33c.53-.14 1-.22 1.38-.22 1.21 0 2 .6 2.35 1.82l3.95 12.64c.35 1.28.76 2.68 1.22 4.21.5 1.53 1 3.1 1.5 4.7l1.49 4.8 1.39 4.37 2.18-7.26c.82-2.63 1.64-5.3 2.46-8a1848.34 1848.34 0 0 0 4.8-15.46c.39-1.21 1.15-1.82 2.29-1.82.43 0 .92.08 1.5.22 1.95.53 2.71 1.65 2.29 3.36a51786.46 51786.46 0 0 1-11.63 37.7 2.26 2.26 0 0 1-1.6 1.4c-.75.17-1.51.26-2.3.26z" style="color:#000;font-style:normal;font-variant:normal;font-weight:400;font-stretch:normal;font-size:medium;line-height:1.25;font-family:Gugi;-inkscape-font-specification:Gugi;font-variant-ligatures:normal;font-variant-position:normal;font-variant-caps:normal;font-variant-numeric:normal;font-variant-alternates:normal;font-variant-east-asian:normal;font-feature-settings:normal;font-variation-settings:normal;text-indent:0;text-align:start;text-decoration:none;text-decoration-line:none;text-decoration-style:solid;text-decoration-color:#000;letter-spacing:normal;word-spacing:normal;text-transform:none;writing-mode:lr-tb;direction:ltr;text-orientation:mixed;dominant-baseline:auto;baseline-shift:baseline;text-anchor:start;white-space:normal;shape-padding:0;shape-margin:0;inline-size:0;clip-rule:nonzero;display:inline;overflow:visible;visibility:visible;isolation:auto;mix-blend-mode:normal;color-interpolation:sRGB;color-interpolation-filters:linearRGB;solid-color:#000;solid-opacity:1;vector-effect:none;fill:#000;fill-opacity:1;fill-rule:nonzero;stroke-width:.999995;stroke-linecap:butt;stroke-linejoin:miter;stroke-miterlimit:4;stroke-dasharray:none;stroke-dashoffset:0;stroke-opacity:1;color-rendering:auto;image-rendering:auto;shape-rendering:auto;text-rendering:auto;enable-background:accumulate;stop-color:#000;stop-opacity:1;stroke:none"/><path d="M161.65 237.25c-.45 0-.95.08-1.51.23h-.02l-.01.01c-.93.31-1.68.82-2.21 1.5a2.7 2.7 0 0 0-.46 2.47v.01c1 3.28 2.06 6.7 3.2 10.3 1.14 3.56 2.2 6.98 3.2 10.29a851.38 851.38 0 0 1 5.23 17.12l.01.05.03.05a3.38 3.38 0 0 0 2 1.56l.02.01a9.6 9.6 0 0 0 4.83.06h.01c.9-.25 1.6-.85 1.93-1.7h.01v-.03a9960.23 9960.23 0 0 1 11.63-37.7v-.02l.01-.01c.24-.95.15-1.83-.32-2.52a3.94 3.94 0 0 0-2.33-1.45 6.73 6.73 0 0 0-1.62-.23c-.66 0-1.26.19-1.74.56-.47.38-.81.93-1.03 1.6v.01l-2.3 7.47c-.81 2.63-1.65 5.3-2.5 8l-2.45 8-1.72 5.7-.9-2.82-1.5-4.8c-.5-1.6-.99-3.17-1.49-4.7-.46-1.53-.87-2.92-1.22-4.2l-3.95-12.65a3.08 3.08 0 0 0-1.03-1.6 2.9 2.9 0 0 0-1.8-.57zm0 1c.52 0 .9.13 1.2.35.28.23.51.58.67 1.1v.01l3.95 12.65c.35 1.28.76 2.68 1.23 4.2v.01c.5 1.53 1 3.1 1.49 4.7l1.5 4.8 1.38 4.37.49 1.54.47-1.55 2.18-7.25c.82-2.63 1.64-5.3 2.45-8 .86-2.7 1.7-5.37 2.51-8l2.3-7.46c.17-.54.4-.9.7-1.12a1.7 1.7 0 0 1 1.1-.35c.38 0 .84.07 1.38.2.9.25 1.46.61 1.75 1.04.3.43.37.96.18 1.71a51793.25 51793.25 0 0 1-11.6 37.65c-.24.58-.61.9-1.27 1.09a8.64 8.64 0 0 1-4.31-.05 2.3 2.3 0 0 1-1.4-1.09 971 971 0 0 0-5.2-17.03c-1-3.31-2.07-6.75-3.2-10.3-1.14-3.59-2.2-7-3.2-10.27-.18-.67-.09-1.13.28-1.58l.01-.01c.4-.52.95-.9 1.72-1.16.5-.13.92-.2 1.24-.2z" style="color:#000;font-style:normal;font-variant:normal;font-weight:400;font-stretch:normal;font-size:medium;line-height:1.25;font-family:Gugi;-inkscape-font-specification:Gugi;font-variant-ligatures:normal;font-variant-position:normal;font-variant-caps:normal;font-variant-numeric:normal;font-variant-alternates:normal;font-variant-east-asian:normal;font-feature-settings:normal;font-variation-settings:normal;text-indent:0;text-align:start;text-decoration:none;text-decoration-line:none;text-decoration-style:solid;text-decoration-color:#000;letter-spacing:normal;word-spacing:normal;text-transform:none;writing-mode:lr-tb;direction:ltr;text-orientation:mixed;dominant-baseline:auto;baseline-shift:baseline;text-anchor:start;white-space:normal;shape-padding:0;shape-margin:0;inline-size:0;clip-rule:nonzero;display:inline;overflow:visible;visibility:visible;isolation:auto;mix-blend-mode:normal;color-interpolation:sRGB;color-interpolation-filters:linearRGB;solid-color:#000;solid-opacity:1;vector-effect:none;fill-opacity:1;fill-rule:nonzero;stroke-width:.999995;stroke-linecap:butt;stroke-linejoin:miter;stroke-miterlimit:4;stroke-dasharray:none;stroke-dashoffset:0;stroke-opacity:1;color-rendering:auto;image-rendering:auto;shape-rendering:auto;text-rendering:auto;enable-background:accumulate;stop-color:#000;stop-opacity:1;stroke:none"/></g></g><g style="font-size:53.333px;line-height:1.25;font-family:Gugi;-inkscape-font-specification:Gugi;text-align:center;text-anchor:middle;fill:#000;fill-opacity:1;stroke-width:.999995" aria-label="???"><g style="opacity:1"><path d="M148.24 152.85c.85 0 1.78.2 2.77.59 1.03.4 2.01.89 2.94 1.5h-.06a6.6 6.6 0 0 1 2.14 2.66c.5 1.07.74 2.31.74 3.73v2.56c0 3.31-1.6 6-4.8 8.06-3.2 2.02-4.8 4.09-4.8 6.18v4.11c0 1.53-1.06 2.33-3.2 2.4-2.06 0-3.1-.8-3.1-2.4v-4c0-2.03.42-3.75 1.24-5.17a8.4 8.4 0 0 1 3.52-3.26 9.16 9.16 0 0 0 3.57-2.66 5.87 5.87 0 0 0 1.28-3.68v-1.66c0-.89-.29-1.7-.85-2.45-.54-.75-1.46-1.12-2.78-1.12h-3.46c-1.32 0-2.24.37-2.78 1.12-.53.75-.8 1.56-.8 2.45v2.14c0 1.67-1.06 2.5-3.2 2.5-2.06 0-3.1-.83-3.1-2.5v-2.62c0-2.88.95-5.01 2.84-6.4h-.06c.93-.6 1.89-1.1 2.88-1.49 1-.4 1.96-.59 2.88-.59zm.1 38.03a4.28 4.28 0 0 1-4.31 4.37 4.3 4.3 0 0 1-3.1-1.22 4.37 4.37 0 0 1-1.22-3.15c0-1.2.4-2.22 1.22-3.04a4.3 4.3 0 0 1 3.1-1.23c1.2 0 2.22.41 3.04 1.23a4.04 4.04 0 0 1 1.28 3.04z" style="color:#000;font-style:normal;font-variant:normal;font-weight:400;font-stretch:normal;font-size:medium;line-height:1.25;font-family:Gugi;-inkscape-font-specification:Gugi;font-variant-ligatures:normal;font-variant-position:normal;font-variant-caps:normal;font-variant-numeric:normal;font-variant-alternates:normal;font-variant-east-asian:normal;font-feature-settings:normal;font-variation-settings:normal;text-indent:0;text-align:center;text-decoration:none;text-decoration-line:none;text-decoration-style:solid;text-decoration-color:#000;letter-spacing:normal;word-spacing:normal;text-transform:none;writing-mode:lr-tb;direction:ltr;text-orientation:mixed;dominant-baseline:auto;baseline-shift:baseline;text-anchor:middle;white-space:normal;shape-padding:0;shape-margin:0;inline-size:0;clip-rule:nonzero;display:inline;overflow:visible;visibility:visible;isolation:auto;mix-blend-mode:normal;color-interpolation:sRGB;color-interpolation-filters:linearRGB;solid-color:#000;solid-opacity:1;vector-effect:none;fill:#000;fill-opacity:1;fill-rule:nonzero;stroke-width:.999995;stroke-linecap:butt;stroke-linejoin:miter;stroke-miterlimit:4;stroke-dasharray:none;stroke-dashoffset:0;stroke-opacity:1;color-rendering:auto;image-rendering:auto;shape-rendering:auto;text-rendering:auto;enable-background:accumulate;stop-color:#000;stop-opacity:1;stroke:none"/><path d="M142.05 152.35c-1 0-2.02.21-3.06.62-1.03.4-2.02.92-2.97 1.55l-1.4.91h.7a8.13 8.13 0 0 0-2.3 5.9v2.62c0 .94.32 1.74.96 2.26.64.53 1.53.74 2.63.74a4.3 4.3 0 0 0 2.71-.73c.66-.52 1-1.33 1-2.27v-2.14c0-.79.22-1.49.7-2.16.42-.59 1.15-.91 2.37-.91h3.46c1.22 0 1.95.32 2.37.91v.01c.52.67.76 1.37.76 2.15v1.66c0 1.24-.38 2.35-1.18 3.37a8.66 8.66 0 0 1-3.38 2.52h-.01a8.93 8.93 0 0 0-3.73 3.45 10.72 10.72 0 0 0-1.3 5.43v4c0 .9.32 1.7.97 2.2.64.5 1.53.7 2.62.7h.02a4.65 4.65 0 0 0 2.68-.75c.66-.5 1-1.27 1-2.15v-4.1c0-1.85 1.44-3.79 4.57-5.77 3.3-2.13 5.03-5 5.03-8.48v-2.56c0-1.48-.26-2.8-.8-3.94-.35-.8-.98-1.36-1.56-1.96h.72l-1.41-.91a15.7 15.7 0 0 0-3.02-1.55 8.1 8.1 0 0 0-2.96-.62h-6.19zm0 1h6.19c.78 0 1.64.18 2.59.56.94.35 1.82.81 2.66 1.35l.1.08c.86.62 1.51 1.44 1.98 2.47.46 1 .7 2.16.7 3.52v2.56c0 3.15-1.47 5.64-4.57 7.64-3.26 2.06-5.03 4.25-5.03 6.6v4.11c0 .65-.19 1.04-.6 1.35-.4.3-1.1.51-2.1.55-.97 0-1.62-.2-2.01-.5-.39-.3-.58-.7-.58-1.4v-4c0-1.96.4-3.58 1.16-4.92a7.88 7.88 0 0 1 3.31-3.06h-.02a9.65 9.65 0 0 0 3.76-2.8 6.4 6.4 0 0 0 1.39-4v-1.65c0-.99-.33-1.92-.95-2.75-.65-.9-1.77-1.32-3.18-1.32h-3.46c-1.41 0-2.54.43-3.18 1.33-.6.82-.9 1.75-.9 2.74v2.14c0 .73-.2 1.17-.6 1.48-.41.32-1.1.52-2.1.52-.96 0-1.61-.2-2-.51-.4-.32-.59-.76-.59-1.5v-2.6c0-2.78.87-4.72 2.62-6l.11-.08c.84-.54 1.7-1 2.6-1.35a7.36 7.36 0 0 1 2.7-.56zm1.98 32.76c-1.33 0-2.5.47-3.44 1.37h-.01c-.9.91-1.37 2.08-1.37 3.4 0 1.35.46 2.55 1.36 3.5h.02c.93.9 2.11 1.37 3.44 1.37 1.32 0 2.49-.46 3.39-1.37a4.82 4.82 0 0 0 1.43-3.5 4.6 4.6 0 0 0-1.43-3.4 4.68 4.68 0 0 0-3.4-1.37zm0 1c1.1 0 1.95.35 2.68 1.08l.01.01a3.5 3.5 0 0 1 1.13 2.68c0 1.13-.37 2.03-1.14 2.8a3.59 3.59 0 0 1-2.68 1.07c-1.1 0-1.98-.35-2.74-1.08a3.83 3.83 0 0 1-1.08-2.79c0-1.1.35-1.95 1.07-2.68a3.76 3.76 0 0 1 2.75-1.09z" style="color:#000;font-style:normal;font-variant:normal;font-weight:400;font-stretch:normal;font-size:medium;line-height:1.25;font-family:Gugi;-inkscape-font-specification:Gugi;font-variant-ligatures:normal;font-variant-position:normal;font-variant-caps:normal;font-variant-numeric:normal;font-variant-alternates:normal;font-variant-east-asian:normal;font-feature-settings:normal;font-variation-settings:normal;text-indent:0;text-align:center;text-decoration:none;text-decoration-line:none;text-decoration-style:solid;text-decoration-color:#000;letter-spacing:normal;word-spacing:normal;text-transform:none;writing-mode:lr-tb;direction:ltr;text-orientation:mixed;dominant-baseline:auto;baseline-shift:baseline;text-anchor:middle;white-space:normal;shape-padding:0;shape-margin:0;inline-size:0;clip-rule:nonzero;display:inline;overflow:visible;visibility:visible;isolation:auto;mix-blend-mode:normal;color-interpolation:sRGB;color-interpolation-filters:linearRGB;solid-color:#000;solid-opacity:1;vector-effect:none;fill-opacity:1;fill-rule:nonzero;stroke-width:.999995;stroke-linecap:butt;stroke-linejoin:miter;stroke-miterlimit:4;stroke-dasharray:none;stroke-dashoffset:0;stroke-opacity:1;color-rendering:auto;image-rendering:auto;shape-rendering:auto;text-rendering:auto;enable-background:accumulate;stop-color:#000;stop-opacity:1;stroke:none"/></g><g style="opacity:1"><path d="M177.1 152.85c.85 0 1.77.2 2.77.59 1.03.4 2 .89 2.93 1.5h-.05a6.6 6.6 0 0 1 2.13 2.66c.5 1.07.75 2.31.75 3.73v2.56c0 3.31-1.6 6-4.8 8.06-3.2 2.02-4.8 4.09-4.8 6.18v4.11c0 1.53-1.07 2.33-3.2 2.4-2.07 0-3.1-.8-3.1-2.4v-4c0-2.03.41-3.75 1.23-5.17a8.4 8.4 0 0 1 3.52-3.26 9.16 9.16 0 0 0 3.57-2.66 5.87 5.87 0 0 0 1.28-3.68v-1.66c0-.89-.28-1.7-.85-2.45-.53-.75-1.46-1.12-2.77-1.12h-3.47c-1.32 0-2.24.37-2.77 1.12-.54.75-.8 1.56-.8 2.45v2.14c0 1.67-1.07 2.5-3.2 2.5-2.07 0-3.1-.83-3.1-2.5v-2.62c0-2.88.95-5.01 2.83-6.4h-.05c.92-.6 1.88-1.1 2.88-1.49 1-.4 1.95-.59 2.88-.59zm.1 38.03a4.28 4.28 0 0 1-4.32 4.37 4.3 4.3 0 0 1-3.1-1.22 4.37 4.37 0 0 1-1.22-3.15c0-1.2.4-2.22 1.23-3.04a4.3 4.3 0 0 1 3.09-1.23c1.2 0 2.22.41 3.04 1.23a4.04 4.04 0 0 1 1.28 3.04z" style="color:#000;font-style:normal;font-variant:normal;font-weight:400;font-stretch:normal;font-size:medium;line-height:1.25;font-family:Gugi;-inkscape-font-specification:Gugi;font-variant-ligatures:normal;font-variant-position:normal;font-variant-caps:normal;font-variant-numeric:normal;font-variant-alternates:normal;font-variant-east-asian:normal;font-feature-settings:normal;font-variation-settings:normal;text-indent:0;text-align:center;text-decoration:none;text-decoration-line:none;text-decoration-style:solid;text-decoration-color:#000;letter-spacing:normal;word-spacing:normal;text-transform:none;writing-mode:lr-tb;direction:ltr;text-orientation:mixed;dominant-baseline:auto;baseline-shift:baseline;text-anchor:middle;white-space:normal;shape-padding:0;shape-margin:0;inline-size:0;clip-rule:nonzero;display:inline;overflow:visible;visibility:visible;isolation:auto;mix-blend-mode:normal;color-interpolation:sRGB;color-interpolation-filters:linearRGB;solid-color:#000;solid-opacity:1;vector-effect:none;fill:#000;fill-opacity:1;fill-rule:nonzero;stroke-width:.999995;stroke-linecap:butt;stroke-linejoin:miter;stroke-miterlimit:4;stroke-dasharray:none;stroke-dashoffset:0;stroke-opacity:1;color-rendering:auto;image-rendering:auto;shape-rendering:auto;text-rendering:auto;enable-background:accumulate;stop-color:#000;stop-opacity:1;stroke:none"/><path d="M170.9 152.35c-.99 0-2.01.21-3.06.62-1.02.4-2.02.92-2.97 1.55l-1.4.91h.71a8.13 8.13 0 0 0-2.3 5.9v2.62c0 .94.31 1.74.95 2.26.64.53 1.54.74 2.64.74a4.3 4.3 0 0 0 2.7-.73c.67-.52 1-1.33 1-2.27v-2.14c0-.79.22-1.49.7-2.16.42-.59 1.15-.91 2.37-.91h3.47c1.22 0 1.94.32 2.36.91l.01.01c.51.67.75 1.37.75 2.15v1.66c0 1.24-.38 2.35-1.17 3.37a8.66 8.66 0 0 1-3.39 2.52h-.01a8.93 8.93 0 0 0-3.73 3.45 10.72 10.72 0 0 0-1.3 5.43v4c0 .9.33 1.7.97 2.2.64.5 1.53.7 2.63.7h.01a4.66 4.66 0 0 0 2.69-.75c.65-.5 1-1.27 1-2.15v-4.1c0-1.85 1.43-3.79 4.56-5.77 3.31-2.13 5.04-5 5.04-8.48v-2.56c0-1.47-.26-2.8-.8-3.94-.36-.8-.98-1.36-1.56-1.96h.7l-1.4-.91a15.7 15.7 0 0 0-3.02-1.55 8.1 8.1 0 0 0-2.96-.62h-6.18zm0 1h6.2c.77 0 1.63.18 2.58.56.94.35 1.82.81 2.66 1.35l.11.08c.86.62 1.5 1.44 1.97 2.47.47 1 .7 2.16.7 3.52v2.56c0 3.15-1.47 5.64-4.56 7.64-3.27 2.06-5.03 4.25-5.03 6.6v4.11c0 .65-.2 1.04-.6 1.35-.41.3-1.11.51-2.11.55-.96 0-1.62-.2-2-.5-.4-.3-.59-.7-.59-1.4v-4c0-1.96.4-3.58 1.16-4.92a7.88 7.88 0 0 1 3.31-3.06 9.64 9.64 0 0 0 3.75-2.8 6.4 6.4 0 0 0 1.38-4v-1.65c0-.99-.33-1.92-.95-2.75-.65-.9-1.77-1.32-3.17-1.32h-3.47c-1.41 0-2.53.43-3.18 1.33-.59.82-.9 1.75-.9 2.74v2.14c0 .73-.2 1.17-.6 1.48-.4.32-1.1.52-2.1.52-.96 0-1.61-.2-2-.51-.39-.32-.59-.76-.59-1.5v-2.6c0-2.78.87-4.72 2.63-6l.1-.08c.85-.54 1.71-1 2.6-1.35a7.36 7.36 0 0 1 2.7-.56zm1.98 32.76a4.68 4.68 0 0 0-4.82 4.77c0 1.35.46 2.55 1.37 3.5h.01c.94.9 2.12 1.37 3.44 1.37 1.32 0 2.49-.46 3.4-1.37a4.82 4.82 0 0 0 1.42-3.5 4.6 4.6 0 0 0-1.43-3.4 4.67 4.67 0 0 0-3.39-1.37zm0 1c1.1 0 1.96.35 2.69 1.08v.01a3.5 3.5 0 0 1 1.13 2.68c0 1.13-.37 2.03-1.13 2.8a3.58 3.58 0 0 1-2.69 1.07c-1.09 0-1.97-.35-2.74-1.08a3.83 3.83 0 0 1-1.08-2.79c0-1.1.35-1.95 1.08-2.68a3.77 3.77 0 0 1 2.74-1.09z" style="color:#000;font-style:normal;font-variant:normal;font-weight:400;font-stretch:normal;font-size:medium;line-height:1.25;font-family:Gugi;-inkscape-font-specification:Gugi;font-variant-ligatures:normal;font-variant-position:normal;font-variant-caps:normal;font-variant-numeric:normal;font-variant-alternates:normal;font-variant-east-asian:normal;font-feature-settings:normal;font-variation-settings:normal;text-indent:0;text-align:center;text-decoration:none;text-decoration-line:none;text-decoration-style:solid;text-decoration-color:#000;letter-spacing:normal;word-spacing:normal;text-transform:none;writing-mode:lr-tb;direction:ltr;text-orientation:mixed;dominant-baseline:auto;baseline-shift:baseline;text-anchor:middle;white-space:normal;shape-padding:0;shape-margin:0;inline-size:0;clip-rule:nonzero;display:inline;overflow:visible;visibility:visible;isolation:auto;mix-blend-mode:normal;color-interpolation:sRGB;color-interpolation-filters:linearRGB;solid-color:#000;solid-opacity:1;vector-effect:none;fill-opacity:1;fill-rule:nonzero;stroke-width:.999995;stroke-linecap:butt;stroke-linejoin:miter;stroke-miterlimit:4;stroke-dasharray:none;stroke-dashoffset:0;stroke-opacity:1;color-rendering:auto;image-rendering:auto;shape-rendering:auto;text-rendering:auto;enable-background:accumulate;stop-color:#000;stop-opacity:1;stroke:none"/></g><g style="opacity:1"><path d="M205.95 152.85c.85 0 1.78.2 2.77.59 1.03.4 2 .89 2.93 1.5h-.05a6.6 6.6 0 0 1 2.13 2.66c.5 1.07.75 2.31.75 3.73v2.56c0 3.31-1.6 6-4.8 8.06-3.2 2.02-4.8 4.09-4.8 6.18v4.11c0 1.53-1.07 2.33-3.2 2.4-2.06 0-3.1-.8-3.1-2.4v-4c0-2.03.42-3.75 1.23-5.17a8.4 8.4 0 0 1 3.52-3.26 9.16 9.16 0 0 0 3.58-2.66 5.87 5.87 0 0 0 1.28-3.68v-1.66c0-.89-.29-1.7-.86-2.45-.53-.75-1.45-1.12-2.77-1.12h-3.47c-1.31 0-2.24.37-2.77 1.12-.53.75-.8 1.56-.8 2.45v2.14c0 1.67-1.07 2.5-3.2 2.5-2.06 0-3.1-.83-3.1-2.5v-2.62c0-2.88.95-5.01 2.83-6.4H194c.93-.6 1.89-1.1 2.88-1.49 1-.4 1.96-.59 2.88-.59zm.1 38.03a4.28 4.28 0 0 1-4.32 4.37 4.3 4.3 0 0 1-3.09-1.22 4.37 4.37 0 0 1-1.23-3.15c0-1.2.41-2.22 1.23-3.04a4.3 4.3 0 0 1 3.1-1.23c1.2 0 2.22.41 3.03 1.23a4.04 4.04 0 0 1 1.28 3.04z" style="color:#000;font-style:normal;font-variant:normal;font-weight:400;font-stretch:normal;font-size:medium;line-height:1.25;font-family:Gugi;-inkscape-font-specification:Gugi;font-variant-ligatures:normal;font-variant-position:normal;font-variant-caps:normal;font-variant-numeric:normal;font-variant-alternates:normal;font-variant-east-asian:normal;font-feature-settings:normal;font-variation-settings:normal;text-indent:0;text-align:center;text-decoration:none;text-decoration-line:none;text-decoration-style:solid;text-decoration-color:#000;letter-spacing:normal;word-spacing:normal;text-transform:none;writing-mode:lr-tb;direction:ltr;text-orientation:mixed;dominant-baseline:auto;baseline-shift:baseline;text-anchor:middle;white-space:normal;shape-padding:0;shape-margin:0;inline-size:0;clip-rule:nonzero;display:inline;overflow:visible;visibility:visible;isolation:auto;mix-blend-mode:normal;color-interpolation:sRGB;color-interpolation-filters:linearRGB;solid-color:#000;solid-opacity:1;vector-effect:none;fill:#000;fill-opacity:1;fill-rule:nonzero;stroke-width:.999995;stroke-linecap:butt;stroke-linejoin:miter;stroke-miterlimit:4;stroke-dasharray:none;stroke-dashoffset:0;stroke-opacity:1;color-rendering:auto;image-rendering:auto;shape-rendering:auto;text-rendering:auto;enable-background:accumulate;stop-color:#000;stop-opacity:1;stroke:none"/><path d="M199.76 152.35c-1 0-2.02.21-3.06.62-1.03.4-2.02.92-2.97 1.55l-1.4.91h.7a8.13 8.13 0 0 0-2.3 5.9v2.62c0 .94.31 1.74.96 2.26.64.53 1.53.74 2.63.74a4.3 4.3 0 0 0 2.7-.73c.67-.52 1-1.33 1-2.27v-2.14c0-.79.23-1.49.7-2.16.43-.59 1.15-.91 2.37-.91h3.47c1.22 0 1.95.32 2.37.91v.01c.52.67.76 1.37.76 2.15v1.66c0 1.24-.39 2.35-1.18 3.37a8.66 8.66 0 0 1-3.38 2.52h-.01a8.94 8.94 0 0 0-3.74 3.45 10.72 10.72 0 0 0-1.3 5.43v4c0 .9.33 1.7.97 2.2.65.5 1.54.7 2.63.7h.02a4.66 4.66 0 0 0 2.68-.75c.66-.5 1-1.27 1-2.15v-4.1c0-1.85 1.43-3.79 4.57-5.77 3.3-2.13 5.03-5 5.03-8.48v-2.56c0-1.47-.26-2.8-.8-3.94-.35-.8-.98-1.36-1.56-1.96h.71l-1.4-.91a15.7 15.7 0 0 0-3.03-1.55 8.12 8.12 0 0 0-2.95-.62h-6.19zm0 1h6.19c.77 0 1.64.18 2.59.56.93.35 1.81.81 2.65 1.35l.11.08c.86.62 1.51 1.44 1.98 2.47.46 1 .7 2.16.7 3.52v2.56c0 3.15-1.47 5.64-4.57 7.64-3.26 2.06-5.03 4.25-5.03 6.6v4.11c0 .65-.19 1.04-.6 1.35-.4.3-1.1.51-2.1.55-.97 0-1.63-.2-2.01-.5-.39-.3-.58-.7-.58-1.4v-4c0-1.96.4-3.59 1.16-4.92a7.88 7.88 0 0 1 3.3-3.06 9.65 9.65 0 0 0 3.75-2.8 6.4 6.4 0 0 0 1.39-4v-1.65c0-.99-.33-1.92-.95-2.74-.65-.9-1.77-1.33-3.18-1.33h-3.47c-1.4 0-2.53.43-3.18 1.33-.58.82-.89 1.75-.89 2.74v2.14c0 .73-.2 1.17-.6 1.48-.41.32-1.1.52-2.1.52-.96 0-1.61-.2-2-.51-.4-.32-.6-.76-.6-1.5v-2.6c0-2.78.88-4.72 2.63-6l.1-.08c.85-.54 1.72-1 2.61-1.35a7.35 7.35 0 0 1 2.7-.56zm1.97 32.76a4.68 4.68 0 0 0-4.82 4.77c0 1.35.47 2.55 1.37 3.5h.01c.94.9 2.12 1.37 3.44 1.37 1.33 0 2.5-.46 3.4-1.37a4.83 4.83 0 0 0 1.42-3.5c0-1.32-.49-2.5-1.43-3.4a4.67 4.67 0 0 0-3.39-1.37zm0 1c1.1 0 1.96.35 2.69 1.08v.01a3.5 3.5 0 0 1 1.13 2.68c0 1.13-.36 2.03-1.13 2.8a3.58 3.58 0 0 1-2.69 1.07c-1.09 0-1.97-.35-2.73-1.08a3.83 3.83 0 0 1-1.09-2.79c0-1.1.35-1.95 1.08-2.68a3.77 3.77 0 0 1 2.74-1.09z" style="color:#000;font-style:normal;font-variant:normal;font-weight:400;font-stretch:normal;font-size:medium;line-height:1.25;font-family:Gugi;-inkscape-font-specification:Gugi;font-variant-ligatures:normal;font-variant-position:normal;font-variant-caps:normal;font-variant-numeric:normal;font-variant-alternates:normal;font-variant-east-asian:normal;font-feature-settings:normal;font-variation-settings:normal;text-indent:0;text-align:center;text-decoration:none;text-decoration-line:none;text-decoration-style:solid;text-decoration-color:#000;letter-spacing:normal;word-spacing:normal;text-transform:none;writing-mode:lr-tb;direction:ltr;text-orientation:mixed;dominant-baseline:auto;baseline-shift:baseline;text-anchor:middle;white-space:normal;shape-padding:0;shape-margin:0;inline-size:0;clip-rule:nonzero;display:inline;overflow:visible;visibility:visible;isolation:auto;mix-blend-mode:normal;color-interpolation:sRGB;color-interpolation-filters:linearRGB;solid-color:#000;solid-opacity:1;vector-effect:none;fill-opacity:1;fill-rule:nonzero;stroke-width:.999995;stroke-linecap:butt;stroke-linejoin:miter;stroke-miterlimit:4;stroke-dasharray:none;stroke-dashoffset:0;stroke-opacity:1;color-rendering:auto;image-rendering:auto;shape-rendering:auto;text-rendering:auto;enable-background:accumulate;stop-color:#000;stop-opacity:1;stroke:none"/></g></g><g style="opacity:1"><path d="M65.18 45.74a20.9 20.9 0 1 1-41.78 0 20.9 20.9 0 0 1 41.78 0" style="color:#000;font-style:normal;font-variant:normal;font-weight:400;font-stretch:normal;font-size:medium;line-height:normal;font-family:sans-serif;font-variant-ligatures:normal;font-variant-position:normal;font-variant-caps:normal;font-variant-numeric:normal;font-variant-alternates:normal;font-variant-east-asian:normal;font-feature-settings:normal;font-variation-settings:normal;text-indent:0;text-align:start;text-decoration:none;text-decoration-line:none;text-decoration-style:solid;text-decoration-color:#000;letter-spacing:normal;word-spacing:normal;text-transform:none;writing-mode:lr-tb;direction:ltr;text-orientation:mixed;dominant-baseline:auto;baseline-shift:baseline;text-anchor:start;white-space:normal;shape-padding:0;shape-margin:0;inline-size:0;clip-rule:nonzero;display:inline;overflow:visible;visibility:visible;isolation:auto;mix-blend-mode:normal;color-interpolation:sRGB;color-interpolation-filters:linearRGB;solid-color:#000;solid-opacity:1;vector-effect:none;fill:#bebebe;fill-opacity:1;fill-rule:nonzero;stroke:none;stroke-width:4;stroke-linecap:round;stroke-linejoin:round;stroke-miterlimit:4;stroke-dasharray:none;stroke-dashoffset:0;stroke-opacity:1;color-rendering:auto;image-rendering:auto;shape-rendering:auto;text-rendering:auto;enable-background:accumulate;stop-color:#000;stop-opacity:1"/><path d="M44.29 22.85a22.92 22.92 0 0 0-22.9 22.89 22.92 22.92 0 0 0 22.9 22.9 22.9 22.9 0 0 0 22.85-22.5 2 2 0 0 0 .04-.4 2 2 0 0 0-.04-.4 22.9 22.9 0 0 0-22.85-22.5zm0 4c10.46 0 18.9 8.43 18.9 18.89s-8.44 18.9-18.9 18.9a18.86 18.86 0 0 1-18.9-18.9c0-10.46 8.44-18.9 18.9-18.9z" style="color:#000;font-style:normal;font-variant:normal;font-weight:400;font-stretch:normal;font-size:medium;line-height:normal;font-family:sans-serif;font-variant-ligatures:normal;font-variant-position:normal;font-variant-caps:normal;font-variant-numeric:normal;font-variant-alternates:normal;font-variant-east-asian:normal;font-feature-settings:normal;font-variation-settings:normal;text-indent:0;text-align:start;text-decoration:none;text-decoration-line:none;text-decoration-style:solid;text-decoration-color:#000;letter-spacing:normal;word-spacing:normal;text-transform:none;writing-mode:lr-tb;direction:ltr;text-orientation:mixed;dominant-baseline:auto;baseline-shift:baseline;text-anchor:start;white-space:normal;shape-padding:0;shape-margin:0;inline-size:0;clip-rule:nonzero;display:inline;overflow:visible;visibility:visible;isolation:auto;mix-blend-mode:normal;color-interpolation:sRGB;color-interpolation-filters:linearRGB;solid-color:#000;solid-opacity:1;vector-effect:none;fill:#000;fill-opacity:1;fill-rule:nonzero;stroke:none;stroke-width:4;stroke-linecap:round;stroke-linejoin:round;stroke-miterlimit:4;stroke-dasharray:none;stroke-dashoffset:0;stroke-opacity:1;color-rendering:auto;image-rendering:auto;shape-rendering:auto;text-rendering:auto;enable-background:accumulate;stop-color:#000;stop-opacity:1"/></g><g style="opacity:1"><path d="M65.18 302.26a20.9 20.9 0 1 1-41.78 0 20.9 20.9 0 0 1 41.78 0" style="color:#000;font-style:normal;font-variant:normal;font-weight:400;font-stretch:normal;font-size:medium;line-height:normal;font-family:sans-serif;font-variant-ligatures:normal;font-variant-position:normal;font-variant-caps:normal;font-variant-numeric:normal;font-variant-alternates:normal;font-variant-east-asian:normal;font-feature-settings:normal;font-variation-settings:normal;text-indent:0;text-align:start;text-decoration:none;text-decoration-line:none;text-decoration-style:solid;text-decoration-color:#000;letter-spacing:normal;word-spacing:normal;text-transform:none;writing-mode:lr-tb;direction:ltr;text-orientation:mixed;dominant-baseline:auto;baseline-shift:baseline;text-anchor:start;white-space:normal;shape-padding:0;shape-margin:0;inline-size:0;clip-rule:nonzero;display:inline;overflow:visible;visibility:visible;isolation:auto;mix-blend-mode:normal;color-interpolation:sRGB;color-interpolation-filters:linearRGB;solid-color:#000;solid-opacity:1;vector-effect:none;fill:#bebebe;fill-opacity:1;fill-rule:nonzero;stroke:none;stroke-width:4;stroke-linecap:round;stroke-linejoin:round;stroke-miterlimit:4;stroke-dasharray:none;stroke-dashoffset:0;stroke-opacity:1;color-rendering:auto;image-rendering:auto;shape-rendering:auto;text-rendering:auto;enable-background:accumulate;stop-color:#000;stop-opacity:1"/><path d="M44.29 279.37a22.92 22.92 0 0 0-22.9 22.89 22.92 22.92 0 0 0 22.9 22.9 22.9 22.9 0 0 0 22.85-22.5 2 2 0 0 0 .04-.4 2 2 0 0 0-.04-.4 22.9 22.9 0 0 0-22.85-22.5zm0 4c10.46 0 18.9 8.43 18.9 18.89s-8.44 18.9-18.9 18.9a18.86 18.86 0 0 1-18.9-18.9c0-10.46 8.44-18.9 18.9-18.9z" style="color:#000;font-style:normal;font-variant:normal;font-weight:400;font-stretch:normal;font-size:medium;line-height:normal;font-family:sans-serif;font-variant-ligatures:normal;font-variant-position:normal;font-variant-caps:normal;font-variant-numeric:normal;font-variant-alternates:normal;font-variant-east-asian:normal;font-feature-settings:normal;font-variation-settings:normal;text-indent:0;text-align:start;text-decoration:none;text-decoration-line:none;text-decoration-style:solid;text-decoration-color:#000;letter-spacing:normal;word-spacing:normal;text-transform:none;writing-mode:lr-tb;direction:ltr;text-orientation:mixed;dominant-baseline:auto;baseline-shift:baseline;text-anchor:start;white-space:normal;shape-padding:0;shape-margin:0;inline-size:0;clip-rule:nonzero;display:inline;overflow:visible;visibility:visible;isolation:auto;mix-blend-mode:normal;color-interpolation:sRGB;color-interpolation-filters:linearRGB;solid-color:#000;solid-opacity:1;vector-effect:none;fill:#000;fill-opacity:1;fill-rule:nonzero;stroke:none;stroke-width:4;stroke-linecap:round;stroke-linejoin:round;stroke-miterlimit:4;stroke-dasharray:none;stroke-dashoffset:0;stroke-opacity:1;color-rendering:auto;image-rendering:auto;shape-rendering:auto;text-rendering:auto;enable-background:accumulate;stop-color:#000;stop-opacity:1"/></g><g style="opacity:1"><path d="M324.6 302.26a20.9 20.9 0 1 1-41.78 0 20.9 20.9 0 0 1 41.78 0" style="color:#000;font-style:normal;font-variant:normal;font-weight:400;font-stretch:normal;font-size:medium;line-height:normal;font-family:sans-serif;font-variant-ligatures:normal;font-variant-position:normal;font-variant-caps:normal;font-variant-numeric:normal;font-variant-alternates:normal;font-variant-east-asian:normal;font-feature-settings:normal;font-variation-settings:normal;text-indent:0;text-align:start;text-decoration:none;text-decoration-line:none;text-decoration-style:solid;text-decoration-color:#000;letter-spacing:normal;word-spacing:normal;text-transform:none;writing-mode:lr-tb;direction:ltr;text-orientation:mixed;dominant-baseline:auto;baseline-shift:baseline;text-anchor:start;white-space:normal;shape-padding:0;shape-margin:0;inline-size:0;clip-rule:nonzero;display:inline;overflow:visible;visibility:visible;isolation:auto;mix-blend-mode:normal;color-interpolation:sRGB;color-interpolation-filters:linearRGB;solid-color:#000;solid-opacity:1;vector-effect:none;fill:#bebebe;fill-opacity:1;fill-rule:nonzero;stroke:none;stroke-width:4;stroke-linecap:round;stroke-linejoin:round;stroke-miterlimit:4;stroke-dasharray:none;stroke-dashoffset:0;stroke-opacity:1;color-rendering:auto;image-rendering:auto;shape-rendering:auto;text-rendering:auto;enable-background:accumulate;stop-color:#000;stop-opacity:1"/><path d="M303.71 279.37a22.92 22.92 0 0 0-22.9 22.89 22.92 22.92 0 0 0 22.9 22.9 22.9 22.9 0 0 0 22.85-22.5 2 2 0 0 0 .04-.4 2 2 0 0 0-.04-.4 22.9 22.9 0 0 0-22.85-22.5zm0 4c10.46 0 18.9 8.43 18.9 18.89s-8.44 18.9-18.9 18.9a18.86 18.86 0 0 1-18.9-18.9c0-10.46 8.44-18.9 18.9-18.9z" style="color:#000;font-style:normal;font-variant:normal;font-weight:400;font-stretch:normal;font-size:medium;line-height:normal;font-family:sans-serif;font-variant-ligatures:normal;font-variant-position:normal;font-variant-caps:normal;font-variant-numeric:normal;font-variant-alternates:normal;font-variant-east-asian:normal;font-feature-settings:normal;font-variation-settings:normal;text-indent:0;text-align:start;text-decoration:none;text-decoration-line:none;text-decoration-style:solid;text-decoration-color:#000;letter-spacing:normal;word-spacing:normal;text-transform:none;writing-mode:lr-tb;direction:ltr;text-orientation:mixed;dominant-baseline:auto;baseline-shift:baseline;text-anchor:start;white-space:normal;shape-padding:0;shape-margin:0;inline-size:0;clip-rule:nonzero;display:inline;overflow:visible;visibility:visible;isolation:auto;mix-blend-mode:normal;color-interpolation:sRGB;color-interpolation-filters:linearRGB;solid-color:#000;solid-opacity:1;vector-effect:none;fill:#000;fill-opacity:1;fill-rule:nonzero;stroke:none;stroke-width:4;stroke-linecap:round;stroke-linejoin:round;stroke-miterlimit:4;stroke-dasharray:none;stroke-dashoffset:0;stroke-opacity:1;color-rendering:auto;image-rendering:auto;shape-rendering:auto;text-rendering:auto;enable-background:accumulate;stop-color:#000;stop-opacity:1"/></g><g style="opacity:1"><path d="M329.86 35.74c0 9.22-7.23 16.7-16.15 16.7-8.92 0-16.15-7.48-16.15-16.7 0-9.22 7.23-16.7 16.15-16.7 8.92 0 16.15 7.48 16.15 16.7z" style="color:#000;font-style:normal;font-variant:normal;font-weight:400;font-stretch:normal;font-size:medium;line-height:normal;font-family:sans-serif;font-variant-ligatures:normal;font-variant-position:normal;font-variant-caps:normal;font-variant-numeric:normal;font-variant-alternates:normal;font-variant-east-asian:normal;font-feature-settings:normal;font-variation-settings:normal;text-indent:0;text-align:start;text-decoration:none;text-decoration-line:none;text-decoration-style:solid;text-decoration-color:#000;letter-spacing:normal;word-spacing:normal;text-transform:none;writing-mode:lr-tb;direction:ltr;text-orientation:mixed;dominant-baseline:auto;baseline-shift:baseline;text-anchor:start;white-space:normal;shape-padding:0;shape-margin:0;inline-size:0;clip-rule:nonzero;display:inline;overflow:visible;visibility:visible;isolation:auto;mix-blend-mode:normal;color-interpolation:sRGB;color-interpolation-filters:linearRGB;solid-color:#000;solid-opacity:1;vector-effect:none;fill:#bebebe;fill-opacity:1;fill-rule:nonzero;stroke:none;stroke-width:1.38112;stroke-linecap:round;stroke-linejoin:round;stroke-miterlimit:4;stroke-dasharray:none;stroke-dashoffset:0;stroke-opacity:1;color-rendering:auto;image-rendering:auto;shape-rendering:auto;text-rendering:auto;enable-background:accumulate;stop-color:#000;stop-opacity:1"/><path d="M313.71 18.35c-9.3 0-16.84 7.8-16.84 17.39 0 9.58 7.54 17.39 16.84 17.39s16.84-7.8 16.84-17.39c0-9.58-7.54-17.39-16.84-17.39zm0 1.38c8.53 0 15.46 7.15 15.46 16.01 0 8.86-6.93 16-15.46 16-8.53 0-15.45-7.14-15.45-16s6.92-16 15.45-16z" style="color:#000;font-style:normal;font-variant:normal;font-weight:400;font-stretch:normal;font-size:medium;line-height:normal;font-family:sans-serif;font-variant-ligatures:normal;font-variant-position:normal;font-variant-caps:normal;font-variant-numeric:normal;font-variant-alternates:normal;font-variant-east-asian:normal;font-feature-settings:normal;font-variation-settings:normal;text-indent:0;text-align:start;text-decoration:none;text-decoration-line:none;text-decoration-style:solid;text-decoration-color:#000;letter-spacing:normal;word-spacing:normal;text-transform:none;writing-mode:lr-tb;direction:ltr;text-orientation:mixed;dominant-baseline:auto;baseline-shift:baseline;text-anchor:start;white-space:normal;shape-padding:0;shape-margin:0;inline-size:0;clip-rule:nonzero;display:inline;overflow:visible;visibility:visible;isolation:auto;mix-blend-mode:normal;color-interpolation:sRGB;color-interpolation-filters:linearRGB;solid-color:#000;solid-opacity:1;vector-effect:none;fill:#000;fill-opacity:1;fill-rule:nonzero;stroke:none;stroke-width:1.38112;stroke-linecap:round;stroke-linejoin:round;stroke-miterlimit:4;stroke-dasharray:none;stroke-dashoffset:0;stroke-opacity:1;color-rendering:auto;image-rendering:auto;shape-rendering:auto;text-rendering:auto;enable-background:accumulate;stop-color:#000;stop-opacity:1"/></g></svg>